<svg width="20" height="20" viewBox="0 0 20 20" fill="none" xmlns="http://www.w3.org/2000/svg">
<path d="M4.16669 2.5V1.75C3.75247 1.75 3.41669 2.08579 3.41669 2.5H4.16669ZM15.8334 17.5V18.25C16.2476 18.25 16.5834 17.9142 16.5834 17.5H15.8334ZM4.16669 17.5H3.41669C3.41669 17.9142 3.75247 18.25 4.16669 18.25V17.5ZM11.6667 2.5L12.197 1.96967C12.0564 1.82902 11.8656 1.75 11.6667 1.75V2.5ZM15.8334 6.66667H16.5834C16.5834 6.46775 16.5043 6.27699 16.3637 6.13634L15.8334 6.66667ZM6.66669 13.4167C6.25247 13.4167 5.91669 13.7525 5.91669 14.1667C5.91669 14.5809 6.25247 14.9167 6.66669 14.9167V13.4167ZM13.3334 14.9167C13.7476 14.9167 14.0834 14.5809 14.0834 14.1667C14.0834 13.7525 13.7476 13.4167 13.3334 13.4167V14.9167ZM6.66669 10.0833C6.25247 10.0833 5.91669 10.4191 5.91669 10.8333C5.91669 11.2475 6.25247 11.5833 6.66669 11.5833V10.0833ZM11.6667 11.5833C12.0809 11.5833 12.4167 11.2475 12.4167 10.8333C12.4167 10.4191 12.0809 10.0833 11.6667 10.0833V11.5833ZM15.8334 16.75H4.16669V18.25H15.8334V16.75ZM4.91669 17.5V2.5H3.41669V17.5H4.91669ZM4.16669 3.25H11.6667V1.75H4.16669V3.25ZM15.0834 6.66667V17.5H16.5834V6.66667H15.0834ZM11.1364 3.03033L15.303 7.197L16.3637 6.13634L12.197 1.96967L11.1364 3.03033ZM10.0834 2.5V5.83333H11.5834V2.5H10.0834ZM12.5 8.25H15.8334V6.75H12.5V8.25ZM10.0834 5.83333C10.0834 7.16802 11.1653 8.25 12.5 8.25V6.75C11.9938 6.75 11.5834 6.33959 11.5834 5.83333H10.0834ZM6.66669 14.9167H13.3334V13.4167H6.66669V14.9167ZM6.66669 11.5833H11.6667V10.0833H6.66669V11.5833Z" fill="#00AEEF"/>
</svg>
